<?xml version="1.0" encoding="UTF-8" standalone="no"?>
<!-- Created with Inkscape (http://www.inkscape.org/) -->

<svg
   version="1.1"
   id="svg1"
   width="1265.348"
   height="603.99347"
   viewBox="0 0 1265.348 603.99347"
   sodipodi:docname="vectorized_logo.svg"
   inkscape:version="1.4.3 (0d15f75, 2025-12-25)"
   xml:space="preserve"
   xmlns:inkscape="http://www.inkscape.org/namespaces/inkscape"
   xmlns:sodipodi="http://sodipodi.sourceforge.net/DTD/sodipodi-0.dtd"
   xmlns="http://www.w3.org/2000/svg"
   xmlns:svg="http://www.w3.org/2000/svg"><defs
     id="defs1" /><sodipodi:namedview
     id="namedview1"
     pagecolor="#ffffff"
     bordercolor="#000000"
     borderopacity="0.25"
     inkscape:showpageshadow="2"
     inkscape:pageopacity="0.0"
     inkscape:pagecheckerboard="0"
     inkscape:deskcolor="#d1d1d1"
     inkscape:zoom="0.504375"
     inkscape:cx="784.13879"
     inkscape:cy="976.45601"
     inkscape:window-width="1920"
     inkscape:window-height="1009"
     inkscape:window-x="1072"
     inkscape:window-y="514"
     inkscape:window-maximized="1"
     inkscape:current-layer="g1"><inkscape:page
       x="0"
       y="0"
       width="1265.348"
       height="603.99347"
       id="page2"
       margin="0"
       bleed="0" /></sodipodi:namedview><g
     inkscape:groupmode="layer"
     inkscape:label="Image"
     id="g1"
     transform="translate(-151.25896,-501.61227)"><path
       style="fill:#4f5456;fill-opacity:0.996078"
       d="m 1149.9256,681.94536 c -0.9598,-0.9597 -0.7942,-43.5842 0.1753,-45.1118 0.6113,-0.9634 4.3664,-1.2099 15.2346,-1 l 14.4234,0.2785 0.3104,3.75 0.3103,3.75 h -9.9379 c -11.476,0 -12.4676,0.5932 -11.9939,7.1761 l 0.3111,4.3239 9,0.5 9,0.5 v 3.5 3.5 l -9,0.5 -9,0.5 -0.2875,9.25 -0.2876,9.25 h -3.7958 c -2.0877,0 -4.0958,-0.3 -4.4624,-0.6667 z"
       id="path204"
       inkscape:export-filename="path204.svg"
       inkscape:export-xdpi="96"
       inkscape:export-ydpi="96" /><path
       style="fill:#4f5456;fill-opacity:0.996078"
       d="m 1040.2527,673.36206 c 0,-5.8334 -0.5031,-10.1734 -1.3515,-11.75 -13.29,-24.6947 -13.682,-26 -7.8071,-26 3.8065,0 3.8675,0.063 8.1648,8.5 5.5807,10.9561 5.5009,10.9656 11.508,-1.3776 3.4411,-7.0708 3.4954,-7.1224 7.4791,-7.1224 5.3551,0 5.2708,0.5342 -2.4838,15.7514 l -6.4967,12.7486 v 9.25 9.25 h -4.5 -4.5 z"
       id="path203" /><path
       style="fill:#4f5456;fill-opacity:0.996078"
       d="m 990.75782,681.41996 c -0.2656,-0.7193 -0.5989,-9.1829 -0.7409,-18.8079 l -0.258,-17.5 -6,-0.5 -6,-0.5 v -4 -4 h 17.5 17.49998 v 4 4 l -6,0.5 -6,0.5 -0.5,18.5 -0.49998,18.5 -4.2591,0.3079 c -2.8283,0.2045 -4.4214,-0.1314 -4.742,-1 z"
       id="path202" /><path
       style="fill:#4f5456;fill-opacity:0.996078"
       d="m 940.92562,681.94536 c -0.36667,-0.3666 -0.66667,-10.4365 -0.66667,-22.3775 0,-23.9938 0.0949,-24.3586 6.18468,-23.774 l 3.31532,0.3182 0.5,19 0.5,19 10.49997,0.5 10.5,0.5 0.3104,3.75 0.3104,3.75 h -15.39374 c -8.46653,0 -15.6937,-0.3 -16.06036,-0.6667 z"
       id="path201" /><path
       id="path200"
       style="fill:#4f5456;fill-opacity:0.996078"
       d="m 814.67383,635.55859 c -0.50083,0.004 -1.06383,0.0527 -1.73438,0.0527 h -4.42187 l -8.12891,22.50586 c -4.47136,12.378 -8.1289,22.953 -8.1289,23.5 0,0.547 1.96868,0.99414 4.37695,0.99414 4.57157,0 4.71569,-0.1474 6.99805,-7.25 0.47632,-1.4823 1.84067,-1.75 8.92187,-1.75 h 8.35938 l 1.92187,4.25 c 1.7751,3.9268 2.24505,4.27449 6.17188,4.55859 4.97379,0.3598 5.09608,-0.0517 2.375,-7.90234 -12.75939,-36.81186 -13.20512,-38.9897 -16.71094,-38.95899 z m -1.70703,14.33008 c 1.62716,-0.0438 6.23532,14.37986 4.95312,15.66211 -1.69795,1.6979 -9.62017,1.32883 -10.31445,-0.48047 -0.69022,-1.7986 3.79677,-14.67312 5.28711,-15.16992 0.0243,-0.008 0.0484,-0.011 0.0742,-0.0117 z" /><path
       style="fill:#4f5456;fill-opacity:0.996078"
       d="m 755.49052,659.36206 0.26843,-23.25 14.72428,-0.2766 14.72427,-0.2766 0.63357,2.5244 c 1.25109,4.9847 0.27406,5.5288 -9.92829,5.5288 -10.89691,0 -11.93454,0.6495 -11.46494,7.1761 l 0.31111,4.3239 9,0.5 9,0.5 v 3.5 3.5 l -9,0.5 -9,0.5 -0.28753,9.25 -0.28752,9.25 h -4.48091 -4.4809 z"
       id="path198" /><path
       id="path197"
       style="fill:#4f5456;fill-opacity:0.996078"
       d="m 1116.8594,634.6875 c -5.5273,0.008 -11.0958,2.51879 -14.709,7.78516 -2.1162,3.0845 -2.4301,4.81185 -2.7324,15.03515 -0.4925,16.6549 1.5064,21.36028 10.4961,24.70508 9.719,3.6162 20.8849,-0.84099 23.705,-9.46289 2.1136,-6.4619 2.1693,-20.38498 0.1055,-26.23438 -2.7219,-7.71474 -9.7587,-11.83861 -16.8652,-11.82812 z m 0.5195,8.38867 c 4.2032,-0.0649 7.532,3.59076 8.3457,10.10352 1.1193,8.9586 -0.2221,17.30169 -3.2285,20.08789 -3.2504,3.0122 -7.3797,2.98684 -10.9316,-0.0684 -4.1493,-3.5691 -4.3794,-24.47499 -0.3047,-27.64649 2.1179,-1.64846 4.2086,-2.44707 6.1191,-2.47656 z" /><path
       style="fill:#4f5456;fill-opacity:0.996078"
       d="m 899.16623,681.31826 c -7.82046,-4.0701 -9.00155,-7.9089 -8.67814,-28.2062 l 0.27086,-17 3.89821,-0.3192 c 5.41796,-0.4437 5.5691,0.07 5.58648,18.9966 l 0.0153,16.6774 2.63486,2.0726 c 2.62471,2.0646 6.96347,2.7044 8.86514,1.3073 4.59571,-3.3764 4.98507,-4.94 5.5,-22.086 l 0.50001,-16.6487 h 4 4 v 17.5 c 0,15.5 -0.22857,17.9571 -2,21.5 -3.93422,7.8684 -15.69581,10.8366 -24.59272,6.2062 z"
       id="path195" /><path
       style="fill:#4f5456;fill-opacity:0.996078"
       d="m 855.82243,682.88676 c -5.15766,-1.3136 -9.56134,-5.5284 -11.06438,-10.5897 -1.93155,-6.5042 -1.92006,-18.9045 0.0236,-25.4494 3.73305,-12.5706 19.46083,-16.1854 28.98446,-6.6618 4.36794,4.3679 4.35567,5.0388 -0.12645,6.9116 -3.5422,1.48 -3.6921,1.4483 -7.0348,-1.4866 -6.50359,-5.7102 -12.76694,-1.9184 -13.87172,8.3979 -1.8931,17.6774 4.97553,26.6837 14.18413,18.5984 3.27194,-2.8728 3.54958,-2.939 6.3186,-1.5071 4.68075,2.4205 4.7129,3.5722 0.21121,7.5671 -5.07735,4.5058 -10.96605,5.9156 -17.62462,4.2196 z"
       id="path194" /><path
       style="fill:#4f5456;fill-opacity:0.996078"
       d="m 1333.9741,765.86266 c -0.2216,-0.4125 -0.3062,-2.1 -0.188,-3.75 0.1182,-1.65 0.2729,-11.6625 0.3439,-22.25 l 0.1289,-19.25 h 14.8834 c 13.3485,0 14.9265,0.1804 15.3017,1.75 1.1251,4.7055 0.2406,5.1659 -10.5018,5.4657 l -10.1833,0.2843 v 5.5 5.5 l 8.808,0.2898 8.808,0.2897 -0.308,3.7103 -0.308,3.7102 -8.75,0.2889 -8.75,0.289 v 5.926 5.9261 l 10.1437,0.285 c 10.6285,0.2986 13.002,1.357 11.5468,5.1491 -0.6677,1.7401 -30.0648,2.5809 -30.9753,0.8859 z"
       id="path193" /><path
       style="fill:#4f5456;fill-opacity:0.996078"
       d="m 1237.9256,765.94566 c -0.9751,-0.975 -0.7862,-42.5966 0.2004,-44.1525 1.7869,-2.8182 8.4523,-1.0241 10.4741,2.8192 4.9039,9.3217 14.3073,24.5 15.1786,24.5 0.5817,0 1.0931,-5.8174 1.258,-14.3087 l 0.2778,-14.3087 3.7222,0.3087 3.7222,0.3087 0.2689,22.8055 0.2689,22.8056 -4.7563,-0.3056 -4.7563,-0.3055 -6.1933,-10.5 c -3.4064,-5.775 -7.0121,-12.0505 -8.0127,-13.9456 -3.6448,-6.9031 -4.3192,-5.2851 -4.3192,10.3623 v 14.5833 h -3.3333 c -1.8334,0 -3.6334,-0.3 -4,-0.6667 z"
       id="path192" /><path
       style="fill:#4f5456;fill-opacity:0.996078"
       d="m 1192.2589,743.63836 v -23.026 h 14.9809 14.981 l 0.6458,2.5732 c 0.9629,3.8363 -0.201,4.3217 -11.1186,4.6377 l -9.9891,0.2891 v 5.5 5.5 l 8.808,0.2898 8.808,0.2897 -0.308,3.7103 -0.308,3.7102 -8.75,0.2889 -8.75,0.289 v 5.9272 5.9272 l 10.75,0.2839 10.75,0.2838 v 3 3 l -15.25,0.276 -15.25,0.2761 z"
       id="path191" /><path
       style="fill:#4f5456;fill-opacity:0.996078"
       d="m 1166.4901,743.86236 0.2688,-22.75 h 4 4 l 0.2688,22.75 0.2687,22.75 h -4.5375 -4.5375 z"
       id="path190" /><path
       id="path189"
       style="fill:#4f5456;fill-opacity:0.996078"
       d="m 1012.2598,720.44922 v 23.18164 23.18164 l 12.7949,-0.34961 c 19.237,-0.5268 22.1416,-3.52427 22.1816,-22.88867 0.04,-19.0178 -3.1965,-22.26437 -22.7265,-22.79297 z m 17.9101,8.35156 c 6.0393,0.3412 7.538,3.57438 7.9297,14.20703 0.324,8.7976 0.2118,9.38752 -2.3398,12.41992 -2.407,2.8605 -3.2316,3.18555 -8.1211,3.18555 -6.7265,0 -6.5068,0.57242 -6.1602,-16.05078 l 0.2813,-13.44922 5.5332,-0.29492 c 1.0581,-0.0561 2.0142,-0.0663 2.8769,-0.0176 z" /><path
       style="fill:#4f5456;fill-opacity:0.996078"
       d="m 969.25892,743.61226 v -23.0521 l 15.25,0.276 15.25,0.2761 0.31338,3.25 0.3133,3.25 -9.81328,0.015 c -12.0293,0.019 -12.5237,0.2871 -12.1244,6.5814 l 0.311,4.9033 8.6406,0.2873 c 8.4605,0.2814 8.6511,0.3425 9.147,2.9366 0.901,4.7134 0.123,5.1811 -9.1302,5.4885 l -8.6574,0.2876 v 5.5 5.5 l 10.5,0.5 10.5,0.5 v 3 3 l -15.25,0.276 -15.25,0.2761 z"
       id="path187" /><path
       style="fill:#4f5456;fill-opacity:0.996078"
       d="m 946.70702,765.33756 c -0.26904,-0.7011 -0.36741,-10.9386 -0.21861,-22.75 l 0.27054,-21.4753 h 4 4 l 0.26877,22.75 0.26878,22.75 h -4.05016 c -2.35954,0 -4.25434,-0.5321 -4.53932,-1.2747 z"
       id="path186" /><path
       style="fill:#4f5456;fill-opacity:0.996078"
       d="m 901.70702,765.33756 c -0.26904,-0.7011 -0.36741,-10.9386 -0.21861,-22.75 l 0.27054,-21.4753 4.25,-0.3075 c 2.3375,-0.1691 4.33672,-0.1691 4.44272,0 0.10599,0.1691 0.44349,8.6325 0.75,18.8075 l 0.55728,18.5 10.5,0.5 10.5,0.5 0.31037,3.75 0.31036,3.75 h -15.59175 c -11.71221,0 -15.71346,-0.3172 -16.08091,-1.2747 z"
       id="path185" /><path
       id="path184"
       style="fill:#4f5456;fill-opacity:0.996078"
       d="m 864.07617,720.62695 c -9.61207,-0.0135 -10.74236,0.17491 -11.2832,1.87891 -0.67751,2.1346 -0.49018,42.16466 0.20312,43.41016 0.24586,0.442 2.31845,0.6667 4.60547,0.5 4.58682,-0.3342 4.36198,0.15811 4.55078,-10.05469 l 0.10743,-5.75 5.25,-0.0801 c 12.64478,-0.1931 18.84329,-4.84985 19.51171,-14.65625 0.76937,-11.2877 -5.1523,-15.22305 -22.94531,-15.24805 z m -1.3164,7.48438 5.77343,0.11914 c 8.76896,0.1786 12.39403,5.12936 8.16992,11.16015 -1.3367,1.90841 -2.47496,2.22071 -8.04687,2.22071 h -6.48828 l 0.29492,-6.75 z" /><path
       id="path182"
       style="fill:#4f5456;fill-opacity:0.996078"
       d="m 816.75977,720.8125 -10,0.29883 -0.26954,22.75 -0.26953,22.75 h 4.51953 4.51954 v -8 -8 l 3.25,-0.11719 c 1.7875,-0.065 3.83462,-0.0413 4.55078,0.0547 2.98045,0.3989 11.96677,-3.06213 14.24414,-5.48633 2.14478,-2.283 2.45508,-3.53627 2.45508,-9.95117 0,-11.9318 -4.68926,-14.84673 -23,-14.29883 z m -1,7.30078 5.66796,0.0195 c 8.68229,0.0327 13.41609,6.92532 8.07618,11.75781 -2.05454,1.8596 -11.15673,3.19853 -13.04688,1.91993 -0.9001,-0.609 -1.2087,-2.85777 -1,-7.28907 z" /><path
       id="path180"
       style="fill:#4f5456;fill-opacity:0.996078"
       d="m 772.67188,720.61133 c -5.20651,0 -4.7065,-0.802 -10.94336,17.5 -2.62397,7.7 -5.54593,15.81901 -6.49414,18.04101 -0.94822,2.2219 -2.04191,5.4844 -2.42969,7.25 l -0.70508,3.20899 h 4.42773 c 4.23719,0 4.49639,-0.1722 6,-4 l 1.57032,-4 h 8.40429 8.4043 l 1.96875,3.75 c 1.7395,3.3139 2.45755,3.78679 6.17578,4.05859 5.04136,0.3684 5.00433,1.05811 0.63281,-11.30859 -1.9442,-5.5 -4.22595,-12.25 -5.07031,-15 -0.84435,-2.75 -1.94524,-5.42672 -2.44531,-5.94922 -0.50007,-0.5225 -0.9082,-1.56395 -0.9082,-2.31445 0,-0.7506 -0.95532,-3.58639 -2.12305,-6.30078 -2.07781,-4.83 -2.21588,-4.93555 -6.46484,-4.93555 z m -0.26368,14 c 1.692,0 5.94786,12.2857 5.10938,14.75 -0.48122,1.4143 -7.03672,1.67753 -9.10742,0.36523 -1.42597,-0.9036 2.33295,-15.11523 3.99804,-15.11523 z" /><path
       style="fill:#4f5456;fill-opacity:0.996078"
       d="m 1382.8423,765.59886 c -5.961,-2.3276 -6.957,-3.2343 -6.1939,-5.6384 1.2601,-3.9703 4.0879,-4.4993 9.8104,-1.8352 6.757,3.1457 10.2239,3.1541 13.3456,0.032 4.8755,-4.8755 2.1885,-8.864 -7.056,-10.4739 -8.5615,-1.4909 -10.5365,-2.4764 -13.2395,-6.606 -8.8001,-13.4447 6.7731,-25.9186 24.2125,-19.3937 6.131,2.2939 6.6856,3.5009 3.1395,6.8323 -2.2789,2.1409 -2.5495,2.1744 -5.4503,0.6743 -6.6276,-3.4272 -14.1517,-1.3165 -14.1517,3.9699 0,3.0806 3.1749,5.1573 9.8079,6.4152 10.7534,2.0394 14.1921,5.4589 14.1921,14.1129 0,11.8306 -13.8038,17.6162 -28.4166,11.9102 z"
       id="path178" /><path
       style="fill:#4f5456;fill-opacity:0.996078"
       d="m 1128.7589,766.12326 c -7.211,-3.1869 -9.5,-8.7163 -9.5,-22.9483 0,-15.7541 4.1274,-21.843 15.7385,-23.2182 6.1675,-0.7304 12.9495,2.0042 16.1631,6.5173 l 2.2173,3.1139 -3.5058,1.6717 c -3.4435,1.6421 -3.5677,1.6246 -6.9927,-0.9878 -4.326,-3.2996 -7.68,-3.3726 -11.3146,-0.2462 -2.76,2.374 -2.8058,2.5941 -2.8058,13.4808 v 11.0673 l 3.1522,3.1522 c 3.6604,3.6605 6.2789,3.498 11.2668,-0.699 2.8301,-2.3813 3.3107,-2.4807 6.077,-1.2562 3.5747,1.5823 3.7177,2.6644 0.8361,6.3278 -4.0867,5.1954 -14.3161,7.1254 -21.3321,4.0247 z"
       id="path177" /><path
       style="fill:#a51a2d;fill-opacity:1"
       d="m 151.92562,766.94556 c -0.83009,-0.8301 -0.86593,-259.9879 -0.0364,-263.0833 l 0.60299,-2.25 h 266.86902 266.86902 l 0.0214,133 0.0214,133 H 419.43269 c -146.76222,0 -267.14041,-0.3 -267.50707,-0.6667 z"
       id="path176" /><path
       style="fill:#fefafa;fill-opacity:1"
       d="m 502.51455,720.96196 -0.56807,-25.6503 19.65624,0.5333 19.65623,0.5333 v -5.258 c 0,-2.8919 0.2945,-6.7305 0.65443,-8.5302 0.64135,-3.2067 0.59635,-3.2573 -2.25,-2.5293 -3.43578,0.8787 -27.05709,1.4449 -33.15443,0.7946 l -4.25,-0.4532 v -16.0399 -16.0399 l 17.25,0.7072 c 9.4875,0.3889 19.05,0.7917 21.25,0.8949 l 4,0.1878 0.28867,-8.1401 0.28866,-8.14 -30.28435,0.14 -30.28436,0.1401 0.27662,47 c 0.15214,25.85 -0.14302,50.825 -0.65591,55.5 -0.51289,4.675 -0.72525,8.8375 -0.47191,9.25 0.25334,0.4125 4.66938,0.75 9.81343,0.75 h 9.35281 z"
       id="path175" /><path
       style="fill:#fefafa;fill-opacity:1"
       d="m 636.25895,746.47706 c 11.75454,-2.6566 23.5641,-12.5222 26.5886,-22.212 1.73159,-5.5476 2.13877,-14.8697 2.74607,-62.8682 l 0.35066,-27.7154 -8.12139,0.03 -8.12138,0.03 0.0287,42.7532 0.0287,42.7531 -2.45916,3.5943 c -8.09969,11.8384 -29.89255,15.4888 -45.6739,7.6504 -9.14198,-4.5407 -10.98032,-7.4156 -11.92382,-18.6472 -0.58848,-7.0054 0.0482,-62.2008 0.86206,-74.7333 l 0.19482,-3 h -9.38223 -9.38222 l -0.16107,25 c -0.38927,60.4198 0.63381,67.8816 10.63845,77.5907 10.5549,10.2432 33.36831,14.3888 53.78707,9.7741 z"
       id="path174" /><path
       style="fill:#fefafa;fill-opacity:1"
       d="m 428.12085,747.56486 c 21.54336,-3.4957 36.10071,-24.832 29.72616,-43.5688 -2.96778,-8.7233 -7.03512,-12.0086 -28.08806,-22.6873 -17.24861,-8.7491 -20.74807,-12.2286 -21.31915,-21.1972 -0.4114,-6.461 -0.38909,-6.5264 3.58494,-10.5004 3.19303,-3.193 4.77835,-4.0249 7.86656,-4.128 12.40196,-0.4138 20.2838,1.3023 25.99733,5.6602 1.94672,1.4848 3.89245,2.3103 4.32384,1.8343 0.77218,-0.852 5.04648,-13.0918 5.04648,-14.451 0,-2.9294 -20.70496,-6.4326 -32,-5.4143 -16.87099,1.5211 -28.01993,11.8297 -29.64883,27.4142 -1.79921,17.2139 4.19699,25.0818 26.78554,35.1466 18.98846,8.4607 24.8759,14.7008 23.36649,24.7663 -2.55769,17.0559 -28.60324,20.6251 -47.18311,6.4657 -3.43563,-2.6183 -5.28355,-1.4451 -5.34205,3.3913 -0.0121,0.9987 -0.89148,3.7314 -1.95422,6.0727 l -1.93225,4.257 2.22058,1.455 c 7.92217,5.1908 25.2043,7.6492 38.54975,5.4837 z"
       id="path173" /><path
       style="fill:#4f5456;fill-opacity:0.996078"
       d="m 1299.9144,767.10346 c -10.1866,-2.5864 -13.0082,-8.3481 -12.497,-25.5184 0.3938,-13.23 2.4141,-17.3843 9.9134,-20.3849 9.0269,-3.6118 22.9281,1.2731 22.9281,8.057 0,2.5277 -7.0108,3.7847 -8.5837,1.539 -1.653,-2.3599 -6.0659,-3.5609 -9.717,-2.6446 -7.9981,2.0074 -7.8823,28.5396 0.1379,31.5889 3.0305,1.1522 7.5624,-0.4329 9.6144,-3.3626 1.2496,-1.784 1.696,-1.8417 5.0015,-0.6464 10.2804,3.7174 -5.3279,14.2843 -16.7976,11.372 z"
       id="path172" /><path
       style="fill:#4f5456;fill-opacity:0.996078"
       d="m 1086.7589,767.93686 c -12.6132,-2.4786 -16.5622,-5.4617 -13.051,-9.8588 l 2.3682,-2.9658 5.4413,2.75 c 7.8138,3.949 12.235,3.5702 15.1086,-1.2944 2.4516,-4.1501 0.1667,-7.5461 -5.6817,-8.4447 -2.302,-0.3537 -5.6911,-0.8965 -7.5314,-1.2063 -8.3346,-1.4029 -12.8941,-12.1051 -8.6521,-20.3083 3.1182,-6.0299 15.0068,-8.711 23.7279,-5.3512 6.5512,2.5239 7.1185,3.3853 4.4408,6.7433 -2.2463,2.8172 -2.3337,2.8371 -5.4272,1.2375 -6.8662,-3.5507 -15.2434,-1.3042 -15.2434,4.0878 0,3.3295 8.6518,7.0908 16.7471,7.2805 0.1359,0 2.0484,1.6331 4.25,3.6221 7.5857,6.8532 4.8472,18.1397 -5.2755,21.7425 -5.2829,1.8802 -8.6529,2.4706 -11.2216,1.9658 z"
       id="path171" /><path
       style="fill:#103d8e;fill-opacity:1"
       d="m 876.81565,830.38976 c -2.48887,-3.5534 -2.1773,-18.1569 0.4433,-20.7775 2.49115,-2.4912 5.18862,-2.5541 7.34501,-0.1713 2.51641,2.7806 2.3838,19.2017 -0.17375,21.5163 -2.54653,2.3046 -5.7712,2.0642 -7.61456,-0.5675 z"
       id="path170" /><path
       style="fill:#103d8e;fill-opacity:1"
       d="m 910.34228,840.68486 c -3.5295,-2.234 3.7492,-18.9325 8.97556,-20.5913 5.70646,-1.8112 8.94479,2.9805 5.92708,8.7701 -5.22654,10.0273 -10.77877,14.4315 -14.90264,11.8212 z"
       id="path169" /><path
       style="fill:#103d8e;fill-opacity:1"
       d="m 846.13765,840.79196 c -3.59512,-1.5072 -10.8787,-12.6976 -10.8787,-16.7138 0,-1.4921 0.98042,-3.0622 2.55724,-4.0954 3.38417,-2.2174 6.37853,-0.095 11.59118,8.2141 4.32042,6.8873 4.70718,9.7027 1.62907,11.8587 -2.43583,1.7061 -2.54621,1.7227 -4.89879,0.7364 z"
       id="path168" /><path
       style="fill:#103d8e;fill-opacity:1"
       d="m 932.45895,864.41226 c -1.72976,-1.7298 -1.47555,-6.3264 0.43769,-7.9143 4.00923,-3.3274 15.81658,-7.6359 18.08876,-6.6006 6.06529,2.7635 3.91978,7.6515 -5.30819,12.0932 -7.90235,3.8037 -11.22712,4.4128 -13.21826,2.4217 z"
       id="path167" /><path
       style="fill:#103d8e;fill-opacity:1"
       d="m 818.25895,863.16616 c -9.0411,-4.1097 -11.28579,-6.9426 -8.66746,-10.9387 2.19486,-3.3498 3.73912,-3.289 11.66746,0.4595 10.28905,4.8646 12.79689,8.8529 7.77749,12.3686 -2.80319,1.9634 -1.98666,2.1066 -10.77749,-1.8894 z"
       id="path166" /><path
       style="fill:#103d8e;fill-opacity:1"
       d="m 939.50895,896.11726 c -2.72028,-1.9567 -2.91541,-5.5929 -0.42126,-7.85 4.78513,-4.3305 23.17123,-1.4312 23.17123,3.6539 0,5.1569 -17.04369,8.3005 -22.74997,4.1961 z"
       id="path165" /><path
       style="fill:#103d8e;fill-opacity:1"
       d="m 802.59575,896.43046 c -3.02914,-1.4653 -3.49058,-4.353 -1.16749,-7.3063 2.47537,-3.147 18.35051,-3.8492 21.25926,-0.9405 2.2554,2.2554 1.94103,6.0563 -0.65108,7.8719 -2.59054,1.8145 -15.93279,2.0718 -19.44069,0.3749 z"
       id="path164" /><path
       style="fill:#103d8e;fill-opacity:1"
       d="m 935.25895,930.73846 c -7.85077,-3.9645 -9.90596,-7.1247 -6.94981,-10.6867 2.94288,-3.5459 21.06131,3.33 21.7626,8.2589 1.00478,7.062 -4.00864,7.8836 -14.81279,2.4278 z"
       id="path163" /><path
       style="fill:#103d8e;fill-opacity:1"
       d="m 812.30914,933.17276 c -2.90788,-3.5038 -0.88654,-6.8818 6.44981,-10.7789 8.07191,-4.2878 12.86129,-4.8436 14.54985,-1.6885 2.22009,4.1483 0.4288,6.5747 -7.64521,10.3558 -8.20011,3.8401 -11.48837,4.3601 -13.35445,2.1116 z"
       id="path162" /><path
       style="fill:#103d8e;fill-opacity:1"
       d="m 1198.1061,940.92536 c -4.8805,-0.5642 -10.199,-5.803 -12.2019,-12.019 -2.6801,-8.318 -5.5895,-78.3479 -3.6677,-88.2845 2.0476,-10.5875 9.3537,-15.8502 22.1503,-15.9552 8.6855,-0.071 13.1418,1.8614 16.6166,7.2067 l 2.7555,4.2389 -0.078,20.5508 c -0.043,11.303 -0.5918,25.253 -1.2202,31 -0.6284,5.7471 -1.6479,16.7492 -2.2656,24.4492 -2.0478,25.5271 -5.9935,30.6738 -22.0893,28.8131 z"
       id="path161" /><path
       style="fill:#103d8e;fill-opacity:1"
       d="m 867.52961,962.64846 c -4.97323,-2.2576 -7.80092,-6.4137 -8.7697,-12.8896 -1.27349,-8.5127 -5.68342,-20.5268 -9.58729,-26.119 -2.12235,-3.0402 -5.13007,-7.3276 -6.68382,-9.5276 -8.72732,-12.3573 -9.36082,-36.0811 -1.26701,-47.4478 1.12044,-1.5735 2.03716,-3.2545 2.03716,-3.7355 0,-1.265 12.04634,-12.8488 15,-14.424 17.61202,-9.3925 38.29671,-6.6046 54.35471,7.326 7.08675,6.1479 10.41799,12.2306 12.75015,23.2813 3.26282,15.4605 0.95719,25.1233 -9.27927,38.8892 -7.08159,9.5233 -9.29904,13.6542 -10.2586,19.1108 -1.7034,9.6865 -4.92441,21.1533 -6.42922,22.888 -4.33234,4.9943 -23.23793,6.5654 -31.86711,2.6482 z"
       id="path160" /><path
       style="fill:#103d8e;fill-opacity:1"
       d="m 870.75895,979.38766 c -6.52315,-2.2001 -8,-3.4854 -8,-6.9624 0,-3.7924 -0.27791,-3.7546 11.5,-1.565 6.46405,1.2018 8.39782,1.1955 14,-0.045 10.06831,-2.23 10.45403,-2.1772 10.8084,1.4809 0.62485,6.4501 -17.06878,10.8827 -28.3084,7.0918 z"
       id="path159" /><path
       style="fill:#103d8e;fill-opacity:1"
       d="m 361.39863,988.94326 c -3.7632,-0.7956 -10.63782,-8.4099 -12.48349,-13.8267 -1.43875,-4.2224 -1.65769,-10.4499 -1.66764,-47.4325 -0.017,-63.1379 1.70979,-79.2414 9.85074,-91.8661 9.42206,-14.6114 29.25939,-11.6937 33.90049,4.9862 3.47073,12.4736 2.72095,76.7861 -1.3034,111.799 -3.23808,28.1722 -12.24116,39.7344 -28.2967,36.3401 z"
       id="path158" /><path
       style="fill:#103d8e;fill-opacity:1"
       d="m 505.46482,989.48516 c -6.77932,-3.3557 -11.20721,-14.2467 -13.29563,-32.7024 -1.44235,-12.7462 0.24013,-88.2339 2.17689,-97.6705 6.03699,-29.4144 19.34358,-40.8851 32.24664,-27.7976 5.7342,5.8162 7.55763,9.8659 15.42361,34.2547 2.74191,8.5014 5.45718,15.6144 6.03392,15.8067 0.71355,0.2378 0.99432,-6.6186 0.87867,-21.4572 -0.1648,-21.1435 -0.0982,-21.9434 2.19005,-26.3066 5.08827,-9.7022 10.42324,-12.5798 17.69173,-9.5428 15.33857,6.4088 18.16995,26.5465 15.38995,109.4583 -1.04938,31.2973 -1.63695,36.2319 -5.48739,46.0845 -4.83268,12.3659 -16.17542,15.3364 -24.77007,6.4867 -3.71066,-3.8207 -11.38367,-22.3795 -21.75645,-52.6226 -0.68587,-1.9997 -2.09198,-4.6997 -3.12467,-6 l -1.87763,-2.3641 0.59131,4.5 c 0.32522,2.475 0.67949,13.725 0.78726,25 0.19505,20.4067 0.18391,20.5227 -2.44597,25.5 -3.19364,6.0441 -5.51651,8.2589 -10.54189,10.0512 -5.03075,1.7942 -5.12852,1.7876 -10.11033,-0.6783 z"
       id="path157" /><path
       style="fill:#103d8e;fill-opacity:1"
       d="m 1368.666,991.64816 c -14.0588,-3.0158 -21.6114,-11.8127 -24.4995,-28.5359 -1.2852,-7.4414 -0.6517,-76.8208 0.977,-107.0104 1.0822,-20.0586 3.4583,-25.616 12.1154,-28.3367 6.5367,-2.0544 46.9474,-1.9548 50.7543,0.125 11.8584,6.4785 10.4192,22.8699 -2.4568,27.9819 -5.0753,2.015 -9.2666,2.3211 -17.8615,1.3043 -8.6578,-1.0241 -8.7941,-0.7519 -8.2447,16.4618 0.2943,9.2222 0.8682,14.4333 1.6788,15.2433 0.8222,0.8215 4.8033,1.2308 11.9732,1.2308 15.4535,0 20.1567,3.3222 20.1567,14.2382 0,11.7404 -2.4805,14.012 -16.1977,14.8329 -16.548,0.9903 -16.9452,1.434 -16.9452,18.9289 0,16.4811 1.9505,19.566 10.7047,16.9313 21.1205,-6.3563 35.3337,16.9122 18.0808,29.6001 -8.1441,5.9892 -28.4715,9.528 -40.2355,7.0045 z"
       id="path156" /><path
       style="fill:#103d8e;fill-opacity:1"
       d="m 1270.7589,990.17396 c -8.1523,-4.6869 -14.0401,-12.975 -16.9241,-23.8235 -0.7659,-2.881 -2.5006,-8.8382 -3.8548,-13.2382 -1.3543,-4.4 -3.0071,-10.7 -3.6729,-14 -0.6659,-3.3 -1.6005,-7.8 -2.077,-10 -7.3556,-33.9622 -8.1138,-81.1071 -1.5281,-95.015 5.2386,-11.063 22.3223,-12.9264 28.0397,-3.0583 2.9852,5.1523 4.1636,12.0244 5.5,32.0733 0.5865,8.8 1.5205,20.275 2.0754,25.5 2.5809,24.2985 5.0057,42.4639 5.7706,43.2288 0.4615,0.4615 1.3893,-3.7887 2.0617,-9.4448 0.6724,-5.6562 1.629,-13.434 2.1259,-17.284 0.4968,-3.85 1.384,-11.275 1.9714,-16.5 2.4592,-21.8715 4.4246,-34.0991 7.7155,-48 1.1514,-4.8639 6.6782,-12.0022 10.8624,-14.0298 8.485,-4.1117 15.9974,-1.4478 20.6935,7.3377 4.4849,8.3905 1.3831,50.1108 -5.8797,79.0837 -0.8422,3.3596 -1.9041,7.6834 -2.3598,9.6084 -0.4558,1.925 -1.4769,5.75 -2.2692,8.5 -0.7923,2.75 -2.4732,8.6 -3.7354,13 -9.4045,32.7855 -13.7311,41.1023 -24.2253,46.5677 -5.3419,2.7821 -14.989,2.5415 -20.2898,-0.506 z"
       id="path155" /><path
       style="fill:#103d8e;fill-opacity:1"
       d="m 1121.3555,990.43296 c -12.17,-4.6735 -17.6041,-14.3049 -19.3641,-34.3208 -0.9644,-10.9672 0.1861,-75.6733 1.9024,-107 0.9505,-17.3482 5.6743,-23 19.2236,-23 h 8.3585 l 4.6415,5.062 c 6.157,6.7148 7.649,11.8874 6.7185,23.2923 -6.2413,76.5005 -5.9521,98.305 1.3345,100.6177 1.0634,0.3375 4.8282,0.1095 8.3664,-0.5067 22.6775,-3.9491 31.325,22.5388 10.775,33.0047 -10.8492,5.5254 -31.3622,6.9192 -41.9563,2.8508 z"
       id="path154" /><path
       style="fill:#103d8e;fill-opacity:1"
       d="m 719.66604,991.58156 c -17.65868,-3.501 -24.21939,-14.7447 -25.14789,-43.0983 -0.62909,-19.2109 1.41235,-96.4815 2.78377,-105.3682 1.16094,-7.5228 5.02995,-13.2559 10.09924,-14.9651 4.69206,-1.5819 42.03997,-2.8479 47.2804,-1.6027 15.9536,3.7911 17.70947,22.6955 2.72368,29.3244 -4.01745,1.7771 -5.87138,1.9474 -15.31798,1.4069 l -10.74734,-0.6149 -0.6844,3.6482 c -1.02171,5.4462 0.2931,27.2215 1.74961,28.9765 0.98246,1.1838 2.6228,1.3492 8.01243,0.8079 15.45088,-1.5517 23.65415,2.5119 24.58288,12.1773 1.1519,11.9881 -2.71305,16.1187 -15.80333,16.8895 -14.08843,0.8295 -15.93816,1.2282 -15.93816,3.4355 0,1.0426 -0.45,2.1738 -1,2.5137 -1.66785,1.0308 -1.25947,24.0976 0.48641,27.4737 1.82524,3.5296 3.60489,3.9401 9.98152,2.3023 15.37233,-3.9484 27.54156,5.4956 24.94137,19.3557 -2.36348,12.5985 -27.00866,21.4999 -48.00221,17.3377 z"
       id="path153" /><path
       style="fill:#103d8e;fill-opacity:1"
       d="m 431.58535,991.63356 c -11.82907,-2.5264 -18.54217,-9.5359 -22.90787,-23.9194 -1.74993,-5.7655 -1.98445,-65.0314 -0.39413,-99.6023 1.90074,-41.3189 1.7889,-41.1935 37.20075,-41.6886 21.22055,-0.2967 22.46418,-0.2094 26.27485,1.8434 9.302,5.0111 10.86586,17.3047 3.07182,24.148 -5.21676,4.5804 -9.47398,5.5698 -20.77807,4.829 l -9.83832,-0.6448 -1.08465,2.7565 c -1.32274,3.3615 -0.34146,26.5085 1.24983,29.4819 0.97695,1.8254 1.71165,1.951 7.86557,1.3446 17.10264,-1.6852 25.01382,2.8505 25.01382,14.3413 0,6.1955 -0.26938,7.0623 -3.25,10.4573 l -3.25,3.7018 -10,0.5286 c -16.94242,0.8956 -17.5,1.4969 -17.5,18.8739 0,16.5492 2.02153,19.3784 11.98391,16.7718 22.98294,-6.0132 35.06014,20.981 14.18802,31.7123 -9.19168,4.7258 -27.78311,7.2138 -37.84553,5.0647 z"
       id="path152" /><path
       style="fill:#103d8e;fill-opacity:1"
       d="m 1202.7589,993.14286 c -0.55,-0.1958 -2.2028,-0.6203 -3.6729,-0.9433 -13.1663,-2.8923 -17.0871,-26.3501 -6.1466,-36.7741 12.5564,-11.9636 33.4103,0.9156 30.9185,19.0951 -1.4987,10.9347 -13.3396,21.3856 -21.099,18.6223 z"
       id="path151" /><path
       id="path150"
       style="fill:#103d8e;fill-opacity:1"
       d="m 1040.3145,824.7168 c -4.6746,0.13012 -9.3817,0.92955 -12.3457,2.34765 -21.7398,10.4008 -34.7611,51.64098 -34.7481,110.04688 0.009,40.3703 4.06449,54.04064 16.5391,55.74414 1.65,0.2257 3.9,0.29485 5,0.15625 1.1,-0.1387 3.29,-0.28517 4.8672,-0.32617 3.9452,-0.1022 10.0585,-6.38368 11.7851,-12.10938 0.8412,-2.7895 1.3477,-9.52824 1.3477,-17.96484 v -13.5 l 7,-0.25586 c 10.2734,-0.3774 10.0071,-0.82097 9.6523,16.11133 -0.3308,15.7897 0.162,17.82573 5.5078,22.77343 8.9373,8.2717 23.5633,5.76192 27.9766,-4.80078 7.1977,-17.2266 4.7879,-96.29876 -3.7305,-122.41406 -5.0162,-15.3785 -15.982,-29.40448 -26.6933,-34.14258 -2.8406,-1.2565 -7.4837,-1.79614 -12.1582,-1.66601 z m 0.8203,39.36132 c 1.5827,0.0719 3.1697,1.57543 4.623,4.75 4.9062,10.7164 7.6116,37.78757 4.0703,40.72657 -1.5876,1.3172 -10.9444,2.24483 -14.0683,1.39453 -5.2946,-1.4412 -5.8065,-2.96859 -5.1328,-15.33789 1.0392,-19.08188 5.7596,-31.74888 10.5078,-31.53321 z" /><path
       style="fill:#103d8e;fill-opacity:1"
       d="m 633.5594,992.70716 c -12.53639,-3.221 -26.86491,-21.3258 -32.66335,-41.2717 -8.18014,-28.1387 -1.67233,-91.3776 11.35153,-110.3071 8.93058,-12.9801 17.75172,-18.0045 31.51137,-17.9483 30.46265,0.1244 50.92691,39.9969 32.89667,64.0958 -6.03837,8.0707 -25.39667,5.2201 -25.39667,-3.7399 0,-0.9933 -0.45,-2.0842 -1,-2.4241 -0.55,-0.3399 -1,-2.1414 -1,-4.0033 0,-4.8949 -3.84164,-9.187 -6.80383,-7.6017 -2.47472,1.3244 -5.19617,6.0362 -5.19617,8.9963 0,1.0949 -0.40247,2.2394 -0.89437,2.5434 -1.00138,0.6189 -1.25201,2.1286 -3.71477,22.3763 -2.03498,16.7306 -0.69672,30.9978 3.74038,39.8761 4.14035,8.2846 11.14523,7.8624 13.81842,-0.8327 4.86519,-15.8252 4.96227,-16.0188 9.40572,-18.765 8.62395,-5.3299 18.27348,-1.3989 21.35272,8.6986 2.25486,7.3942 2.50082,29.9496 0.38399,35.212 -5.17624,12.8679 -8.41881,16.7635 -18.3665,22.0656 -6.5603,3.4966 -21.58642,5.0437 -29.42514,3.0297 z"
       id="path148" /><path
       style="fill:#103d8e;fill-opacity:1"
       d="m 283.5594,992.70716 c -10.25788,-2.6356 -22.33517,-15.628 -29.43825,-31.6687 -8.08349,-18.2549 -9.16845,-50.9673 -2.93283,-88.4266 3.84268,-23.0842 12.79372,-38.7848 26.268,-46.0755 8.75911,-4.7395 21.98677,-4.9566 31.05383,-0.5098 21.62561,10.6059 31.81851,43.6657 18.64491,60.4732 -7.09522,9.0523 -24.51552,6.5923 -26.36112,-3.7226 -4.01032,-22.4135 -12.44517,-17.2164 -17.58461,10.8347 -3.63014,19.8133 -2.12515,42.6042 3.36076,50.894 4.42148,6.6813 11.35007,6.1114 13.47923,-1.1086 0.53287,-1.807 1.7882,-6.1604 2.78962,-9.6743 4.62585,-16.2317 23.763,-16.5229 28.38422,-0.4319 5.10842,17.7874 0.42691,41.3141 -10.11638,50.8393 -8.76022,7.9143 -25.36407,11.7071 -37.54738,8.5768 z"
       id="path147" /><path
       style="fill:#103d8e;fill-opacity:1"
       d="m 181.13159,992.73716 c -6.15364,-1.307 -14.67645,-6.0639 -19.79233,-11.0469 -7.08557,-6.9016 -9.43027,-12.5445 -9.89294,-23.8093 -0.3758,-9.1497 -0.35254,-9.2576 2.63982,-12.25 4.02749,-4.0274 8.38949,-3.9897 16.32711,0.1414 4.69138,2.4416 7.4053,3.1785 11.93337,3.24 7.47971,0.1016 9.1431,-1.3812 9.1431,-8.1502 0,-7.4472 -0.59748,-8.445 -10.01966,-16.7333 -19.57319,-17.2175 -30.21111,-35.1318 -30.21111,-50.8755 0,-7.0763 4.00475,-20.8956 7.58383,-26.1697 1.32889,-1.9582 2.41617,-3.9359 2.41617,-4.3949 0,-1.7766 13.85114,-13.7865 18.32594,-15.8899 19.72151,-9.2702 40.63374,-1.7104 49.20655,17.7882 6.29559,14.3192 -0.97649,32.025 -13.15324,32.025 -5.3297,0 -7.14064,-1.5279 -10.79709,-9.1093 -2.77276,-5.7492 -3.38331,-6.3907 -6.08216,-6.3907 -2.9933,0 -3.0007,0.014 -3.31528,6.5 -0.59304,12.2265 1.03546,15.1537 18.47851,33.2147 11.42243,11.8271 13.78995,14.8552 17.20124,22 12.68654,26.5718 3.73058,53.2008 -22.36447,66.497 -7.45977,3.801 -19.05633,5.2337 -27.62736,3.4134 z"
       id="path146" /><path
       style="fill:#103d8e;fill-opacity:1"
       d="m 871.13735,993.04956 c -5.37629,-1.6556 -7.1605,-3.4204 -6.70516,-6.6325 0.3774,-2.6623 2.02624,-2.7804 11.07035,-0.7934 4.94472,1.0864 6.71694,1.0253 12.74172,-0.439 7.67066,-1.8643 9.01469,-1.5913 9.01469,1.8314 0,6.2226 -14.57519,9.5891 -26.1216,6.0335 z"
       id="path145" /><path
       style="fill:#103d8e;fill-opacity:1"
       d="m 1173.2093,1041.0524 c -2.0896,-2.5178 -0.05,-6.8669 3.4064,-7.2653 3.0163,-0.3475 6.6432,2.1374 6.6432,4.5514 0,3.8842 -7.4162,5.8869 -10.0496,2.7139 z"
       id="path144" /><path
       style="fill:#103d8e;fill-opacity:1"
       d="m 833.19125,1040.4856 c -1.86752,-3.4895 0.27227,-6.8735 4.34626,-6.8735 3.8198,0 5.72144,1.4957 5.72144,4.5 0,4.7029 -7.83278,6.5495 -10.0677,2.3735 z"
       id="path143" /><path
       style="fill:#103d8e;fill-opacity:1"
       d="m 764.45895,1041.4121 c -2.99115,-2.9912 -0.64838,-7.8 3.8,-7.8 3.1445,0 5,1.67 5,4.5 0,2.83 -1.8555,4.5 -5,4.5 -1.43,0 -3.14,-0.54 -3.8,-1.2 z"
       id="path142" /><path
       style="fill:#103d8e;fill-opacity:1"
       d="m 392.32585,1040.2371 c -1.95583,-3.6545 0.0588,-6.625 4.49303,-6.625 4.0677,0 6.28392,3.5547 4.40503,7.0655 -1.56214,2.9189 -7.2509,2.6372 -8.89806,-0.4405 z"
       id="path141" /><path
       style="fill:#103d8e;fill-opacity:1"
       d="m 279.25895,1040.6121 c -1.24856,-2.333 0.01,-5.3997 2.83625,-6.9124 4.16273,-2.2278 9.13136,3.8367 6.11807,7.4674 -1.83552,2.2117 -7.66708,1.8502 -8.95432,-0.555 z"
       id="path140" /><path
       style="fill:#103d8e;fill-opacity:1"
       d="m 958.91392,1067.7831 c -3.5425,-3.9145 -1.2951,-9.4213 3.845,-9.4213 3.6022,0 5.5,2.0142 5.5,5.8373 0,5.1279 -5.9,7.3907 -9.345,3.584 z"
       id="path139" /><path
       style="fill:#103d8e;fill-opacity:1"
       d="m 517.91394,1067.7831 c -3.50796,-3.8763 -1.5025,-9.1713 3.47358,-9.1713 5.29165,0 7.84552,5.9035 4.04269,9.345 -2.39914,2.1712 -5.45812,2.1005 -7.51627,-0.1737 z"
       id="path138" /><path
       style="fill:#103d8e;fill-opacity:1"
       d="m 1293.7269,1088.389 c -0.2837,-0.7394 -0.3926,-9.4293 -0.242,-19.3108 l 0.274,-17.9664 3.3256,-0.319 c 2.6686,-0.256 3.4324,0.09 3.8666,1.75 0.665,2.5429 0.2544,2.5728 5.9038,-0.431 7.5591,-4.0192 13.8804,-3.0299 17.4137,2.7251 1.8216,2.9669 1.9862,4.7326 1.7505,18.7749 l -0.2602,15.5 -3.0852,0.3011 c -4.7595,0.4644 -5.3266,-1.1218 -5.6345,-15.7612 -0.2748,-13.0649 -0.332,-13.3667 -2.8961,-15.2791 -2.4288,-1.8114 -2.822,-1.8395 -5.5,-0.3925 -6.0924,3.2921 -5.8509,2.6362 -6.3842,17.3425 l -0.5,13.7892 -3.758,0.3108 c -2.4599,0.2035 -3.9363,-0.1535 -4.274,-1.0336 z"
       id="path137" /><path
       style="fill:#103d8e;fill-opacity:1"
       d="m 1173.8355,1088.8551 c -0.3171,-0.3171 -0.5766,-9.0516 -0.5766,-19.41 v -18.833 h 4.0216 4.0216 l -0.2716,19.25 -0.2716,19.25 -3.1734,0.16 c -1.7453,0.088 -3.4328,-0.1 -3.75,-0.4167 z"
       id="path136" /><path
       style="fill:#103d8e;fill-opacity:1"
       d="m 1145.504,1088.4569 c -0.8808,-0.8808 -1.2451,-5.5556 -1.2451,-15.9755 0,-14.5147 -0.033,-14.7352 -2.25,-15.05 -3.5924,-0.5103 -3.8823,-6.8196 -0.3134,-6.8196 2.2674,0 2.5634,-0.4079 2.5634,-3.5321 0,-8.9252 5.2356,-14.4679 13.6662,-14.4679 6.0663,0 7.3925,1.381 5.4403,5.6655 -0.9648,2.1176 -1.4064,2.3305 -2.6655,1.2855 -2.0124,-1.6701 -6.2708,0.5226 -7.0509,3.6307 -1.2291,4.8971 -0.1454,6.8973 3.9185,7.2322 3.625,0.2987 3.7937,0.4674 3.5,3.5 -0.2713,2.8005 -0.7321,3.2466 -3.8086,3.6861 l -3.5,0.5 -0.5,15.5 -0.5,15.5 -3.0049,0.2951 c -1.6527,0.1623 -3.5652,-0.2652 -4.25,-0.95 z"
       id="path135" /><path
       style="fill:#103d8e;fill-opacity:1"
       d="m 1093.7269,1088.3889 c -0.2837,-0.7394 -0.3926,-9.4293 -0.242,-19.3108 l 0.274,-17.9664 3.3256,-0.319 c 2.6869,-0.2577 3.4315,0.086 3.8773,1.7909 0.3035,1.1604 0.832,1.956 1.1744,1.7679 6.9297,-3.8053 10.7891,-4.9205 15.0265,-4.342 8.3007,1.1331 10.2853,6.3215 9.8755,25.8177 l -0.2793,13.2849 h -4 -4 l -0.5541,-13.5 c -0.6054,-14.7501 -0.939,-16.1232 -4.3628,-17.9555 -1.8955,-1.0145 -2.8293,-0.9565 -5.1969,0.3228 -6.0947,3.2932 -5.8529,2.6366 -6.3862,17.3435 l -0.5,13.7892 -3.758,0.3108 c -2.4599,0.2035 -3.9363,-0.1535 -4.274,-1.0336 z"
       id="path134" /><path
       style="fill:#103d8e;fill-opacity:1"
       d="m 833.97321,1088.9926 c -0.39284,-0.3924 -0.71426,-9.1888 -0.71426,-19.5472 v -18.8333 h 4.52159 4.5216 l -0.2716,19.25 -0.27159,19.25 -3.53574,0.2976 c -1.94466,0.1637 -3.85716,-0.024 -4.25,-0.4167 z"
       id="path133" /><path
       style="fill:#103d8e;fill-opacity:1"
       d="m 798.74958,1088.8464 c -1.07605,-0.7832 -4.53849,-9.1257 -6.5305,-15.7347 -0.6631,-2.2 -1.6004,-4.7814 -2.08289,-5.7364 -0.48248,-0.9551 -0.87724,-2.3484 -0.87724,-3.0964 0,-0.748 -0.63156,-2.6666 -1.40346,-4.2636 -0.7719,-1.597 -1.71379,-4.394 -2.09308,-6.2156 l -0.68963,-3.3121 4.30969,0.3121 4.30968,0.312 2.15823,7.5 c 3.52161,12.2378 6.92891,21.5 7.90925,21.5 0.50453,0 1.2324,-1.35 1.61749,-3 0.38509,-1.65 1.68267,-6.15 2.8835,-10 1.20083,-3.85 2.51705,-8.6097 2.92493,-10.5771 1.08869,-5.2512 1.78417,-5.9229 6.13242,-5.9229 4.75258,0 4.73124,-0.7592 0.32322,11.5 -1.97763,5.5 -3.81022,10.9 -4.07243,12 -0.26221,1.1 -0.85783,2.9 -1.32361,4 -0.46577,1.1 -1.39342,3.8 -2.06144,6 -1.44924,4.7728 -2.33119,5.4694 -6.92476,5.4694 -1.925,0 -3.95422,-0.3306 -4.50937,-0.7347 z"
       id="path132" /><path
       style="fill:#103d8e;fill-opacity:1"
       d="m 764.48571,1088.7734 c -0.9724,-0.6171 -1.20868,-5.1619 -1,-19.2347 l 0.27324,-18.4266 h 4.5 4.5 l 0.0564,18 c 0.031,9.9 -0.36158,18.5625 -0.87244,19.25 -1.04119,1.4012 -5.50916,1.6476 -7.45719,0.4113 z"
       id="path131" /><path
       style="fill:#103d8e;fill-opacity:1"
       d="m 606.97321,1088.993 c -0.39284,-0.3928 -0.71426,-9.1892 -0.71426,-19.5476 v -18.8333 h 3.5 c 3.06667,0 3.5,0.3095 3.5,2.5 0,1.5556 0.56667,2.5 1.5,2.5 0.825,0 1.5,-0.4566 1.5,-1.0147 0,-3.0075 10.96041,-6.4764 12.51508,-3.9609 1.80592,2.922 -0.63084,6.9756 -4.19333,6.9756 -7.18912,0 -9.21571,3.9979 -9.54243,18.8244 l -0.27932,12.6756 -3.53574,0.2976 c -1.94466,0.1637 -3.85716,-0.024 -4.25,-0.4167 z"
       id="path130" /><path
       style="fill:#103d8e;fill-opacity:1"
       d="m 393.47768,1088.3756 c -0.74068,-0.8924 -1.04557,-7.3251 -0.91483,-19.301 l 0.1961,-17.9625 4.2718,-0.3086 4.2718,-0.3085 -0.2718,19.3085 -0.2718,19.3086 -3.08517,0.3011 c -1.70231,0.1661 -3.58313,-0.299 -4.1961,-1.0376 z"
       id="path129" /><path
       style="fill:#103d8e;fill-opacity:1"
       d="m 280.97301,1088.9928 c -0.39273,-0.3927 -0.71406,-9.189 -0.71406,-19.5474 v -18.8333 h 4.02159 4.0216 l -0.2716,19.25 -0.27159,19.25 -3.03594,0.2974 c -1.66977,0.1636 -3.35727,-0.024 -3.75,-0.4167 z"
       id="path128" /><path
       style="fill:#103d8e;fill-opacity:1"
       d="m 245.97301,1088.9928 c -0.39273,-0.3927 -0.71406,-9.189 -0.71406,-19.5474 v -18.8333 h 3.48095 c 2.87902,0 3.58945,0.4323 4.10841,2.5 0.70258,2.7993 1.91113,3.215 3.11145,1.0701 1.16842,-2.0878 6.36699,-4.5568 9.60956,-4.5639 4.03175,-0.01 3.74018,7.3099 -0.31037,7.7903 -9.388,1.1135 -11.36035,4.352 -12,19.7035 l -0.5,12 -3.03594,0.2974 c -1.66977,0.1636 -3.35727,-0.024 -3.75,-0.4167 z"
       id="path127" /><path
       id="path126"
       style="fill:#103d8e;fill-opacity:1"
       d="m 1398.2598,1049.6348 c -19.7995,0.1155 -24.9618,30.8353 -6.5586,39.0293 8.7192,3.8822 21.4142,0.2256 19.205,-5.5313 -0.5231,-1.3636 -1.2772,-1.5824 -3.4101,-0.9941 -7.1795,1.98 -12.3138,1.1436 -15.3555,-2.5 -5.7419,-6.8778 -3.7331,-8.3319 10.9082,-7.9004 l 9.711,0.2851 0.291,-5.9961 c 0.4655,-9.5514 -5.7543,-16.4455 -14.791,-16.3925 z m -0.5059,7.166 c 0.28,-0.013 0.56,-0.011 0.8379,0.01 4.3599,0.3226 8.5388,5.0849 7.2988,8.3165 -0.9721,2.5331 -16.6308,2.1192 -16.6308,-0.4395 0,-3.827 4.2937,-7.6896 8.4941,-7.8867 z" /><path
       style="fill:#103d8e;fill-opacity:1"
       d="m 1350.7589,1088.0917 c -20.0807,-9.8275 -9.1801,-42.207 12.8196,-38.0798 5.4997,1.0317 7.3277,2.8838 5.9123,5.9903 -1.193,2.6183 -4.5294,3.5552 -5.7319,1.6095 -2.4061,-3.8932 -11.8015,1.4337 -13.5513,7.6832 -3.1625,11.2954 4.3404,20.3876 13.8325,16.7626 4.3494,-1.6611 4.5913,-1.6569 5.8774,0.102 2.1691,2.9664 1.6017,4.1096 -3.1477,6.3421 -5.7899,2.7215 -9.8233,2.6183 -16.0109,-0.4099 z"
       id="path124" /><path
       id="path123"
       style="fill:#103d8e;fill-opacity:1"
       d="m 1264.5352,1049.793 c -1.1993,-0.019 -2.463,0.069 -3.7852,0.2675 -17.9401,2.6903 -19.8323,33.6937 -2.3965,39.2598 5.8906,1.8805 16.5743,0.2549 18.4688,-2.8105 1.4111,-2.2831 -0.7303,-5.0997 -3.4121,-4.4883 -7.567,1.7252 -9.0348,1.7399 -12.4297,0.1289 -3.7557,-1.7822 -7.3063,-7.3529 -5.7071,-8.9531 0.5025,-0.5028 5.9266,-1.0014 12.0528,-1.1075 12.5079,-0.2167 12.9953,-0.4903 12.1816,-6.8554 -1.2655,-9.899 -6.5781,-15.3068 -14.9726,-15.4414 z m -0.3262,6.7187 c 3.7991,-0.1634 7.0508,2.613 7.0508,7.5645 0,2.4982 -0.1162,2.5351 -7.834,2.5351 -10.4508,0 -11.1158,-0.7094 -6.0625,-6.4648 2.0896,-2.38 4.5662,-3.5367 6.8457,-3.6348 z" /><path
       id="path121"
       style="fill:#103d8e;fill-opacity:1"
       d="m 1223.2598,1033.6113 v 8.834 c 0,10.3363 -0.066,10.4544 -4.7578,8.4942 -19.631,-8.2023 -31.962,28.1971 -12.7422,37.6132 v 0 c 5.17,2.5348 8.2103,2.5343 12.3672,0 3.2025,-1.9524 3.5395,-1.9729 6.8203,-0.416 6.4169,3.045 6.3125,3.4961 6.3125,-26.9922 v -27.5313 h -4 z m -7.7891,23.3145 c 1.9355,0.014 3.9415,0.8379 5.8145,2.7109 2.5344,2.5344 2.8763,16.2419 0.4902,19.6485 -3.9319,5.6137 -12.3776,4.2983 -15.1602,-2.3614 -4.0799,-9.7645 1.943,-20.0485 8.8555,-19.998 z" /><path
       id="path119"
       style="fill:#103d8e;fill-opacity:1"
       d="m 1060.8047,1049.6211 c -10.3408,0 -17.5449,8.0409 -17.5449,20.4492 0,10.6187 3.9401,16.2031 14,19.8418 4.3258,1.5647 13.6774,-1.2791 16.6757,-5.0703 9.8868,-12.5017 5.1465,-31.8208 -8.5195,-34.7207 -1.5934,-0.3381 -3.1341,-0.5005 -4.6113,-0.5 z m 0.1601,6.9902 c 9.5176,0 12.6685,19.7539 3.9942,25.043 -3.8885,2.3709 -3.4746,2.3638 -7.6563,0.1211 -9.5744,-5.1348 -6.6596,-25.1641 3.6621,-25.1641 z" /><path
       style="fill:#103d8e;fill-opacity:1"
       d="m 1015.7589,1089.4406 c -14.5911,-5.4187 -17.34658,-27.9119 -4.4668,-36.4622 8.7888,-5.8345 26.4866,-2.442 20.1769,3.8677 -1.8326,1.8326 -2.4819,1.9628 -4.7148,0.9454 -9.059,-4.1276 -17.5818,6.3402 -13.9177,17.094 2.3973,7.0358 7.6309,9.5393 14.2286,6.8065 3.671,-1.5206 6.1938,-0.2607 6.1938,3.0932 0,3.7349 -11.6404,6.8315 -17.5,4.6554 z"
       id="path117" /><path
       style="fill:#103d8e;fill-opacity:1"
       d="m 866.98679,1089.2753 c -5.13687,-2.3753 -6.05977,-4.9503 -6.6682,-18.6044 -0.53773,-12.0676 -0.64771,-12.5717 -2.80964,-12.8788 -1.62851,-0.2312 -2.25,-0.9908 -2.25,-2.75 0,-1.3367 -0.087,-2.7679 -0.1933,-3.1804 -0.10632,-0.4125 1.13118,-0.9773 2.75,-1.2552 2.71551,-0.466 2.96684,-0.8712 3.2475,-5.2354 0.28137,-4.3754 0.54395,-4.7954 3.5,-5.598 4.37698,-1.1885 4.6958,-0.822 4.6958,5.3976 v 5.441 h 5.06336 5.06336 l -0.31336,3.25 c -0.30046,3.1162 -0.50886,3.2625 -5.06336,3.5548 l -4.75,0.3048 v 10.7566 c 0,12.1963 1.68556,15.9315 6.62941,14.6907 2.67882,-0.6724 5.41249,3.8012 3.49472,5.719 -1.53335,1.5333 -9.38762,1.779 -12.39629,0.3877 z"
       id="path116" /><path
       style="fill:#103d8e;fill-opacity:1"
       d="m 737.5575,1088.7107 c -5.21178,-3.2731 -6.29855,-6.5642 -6.29855,-19.0741 0,-10.8926 -0.0411,-11.09 -2.5,-12.0249 -3.62445,-1.378 -3.6554,-7 -0.0385,-7 2.42596,0 3.36662,-1.8569 4.71264,-9.3028 0.17924,-0.9916 0.6634,-1.7791 1.0759,-1.75 0.4125,0.029 1.85148,0.053 3.19774,0.053 2.24778,0 2.47243,0.4289 2.75,5.25 l 0.30226,5.25 5,0.5 c 3.14815,0.3148 4.96296,0.963 4.9,1.75 -0.055,0.6875 -0.1675,2.1253 -0.25,3.1952 -0.12223,1.5851 -1.02932,2.0016 -4.9,2.25 l -4.75,0.3048 -0.29012,9.446 c -0.39871,12.9818 1.8265,17.4468 7.75681,15.5646 2.27083,-0.7208 4.07825,3.8445 2.24706,5.6757 -2.09379,2.0937 -9.52225,2.0436 -12.9152,-0.087 z"
       id="path115" /><path
       id="path114"
       style="fill:#103d8e;fill-opacity:1"
       d="m 698.53906,1049.7461 c -4.5015,-0.1163 -9.11661,1.1027 -12.31836,3.6953 -1.89519,1.5346 -2.05442,2.1292 -1.06054,3.9863 1.37526,2.5697 2.58972,2.6978 6.46289,0.6778 5.93288,-3.0942 12.63672,-0.9249 12.63672,4.0898 0,1.9731 -0.76119,2.4213 -5.75,3.3848 -9.48032,1.831 -14.85376,5.3946 -15.8086,10.4844 -0.95093,5.0688 0.77811,9.7742 4.51758,12.2968 4.27096,2.8811 7.62808,2.8422 13.26367,-0.1543 l 4.52344,-2.4043 2.03516,2.0352 c 1.51487,1.5148 2.73048,1.8619 4.74804,1.3555 l 2.71094,-0.6797 -0.41602,-15.4805 -0.41601,-15.4785 -3.49414,-3.4942 c -2.74629,-2.7462 -7.13326,-4.1981 -11.63477,-4.3144 z m 3.21094,20.8652 c 4.91672,0 4.6218,8.3204 -0.40039,11.2871 -6.12793,3.6199 -10.66685,1.1687 -10.20899,-5.5156 0.14095,-2.0575 6.96705,-5.7715 10.60938,-5.7715 z" /><path
       id="path112"
       style="fill:#103d8e;fill-opacity:1"
       d="m 654.91602,1050.127 c -19.94871,0.05 -24.72946,30.0236 -6.15625,38.5957 8.30991,3.8352 22.70859,-0.3694 18.93554,-5.5293 -1.27077,-1.7379 -1.75985,-1.7956 -5.32422,-0.6192 -7.22639,2.3849 -14.03126,-0.6984 -15.61328,-7.0762 -0.83703,-3.3744 -0.29195,-3.5381 12.32617,-3.7148 12.35562,-0.173 12.53781,-0.2616 11.92579,-5.6914 -1.19707,-10.6204 -6.60877,-15.9888 -16.09375,-15.9648 z m -0.16211,6.6738 c 0.28002,-0.013 0.56,-0.011 0.83789,0.01 4.35989,0.3226 8.53892,5.0849 7.29882,8.3165 -0.97202,2.5331 -16.63085,2.1192 -16.63085,-0.4395 0,-3.827 4.29372,-7.6896 8.49414,-7.8867 z" /><path
       style="fill:#103d8e;fill-opacity:1"
       d="m 573.3637,1088.8077 c -13.77233,-5.3131 -15.7624,-27.4446 -3.22742,-35.8919 8.89285,-5.9929 26.29543,-2.3743 20.13218,4.1862 -2.07805,2.212 -2.47209,2.2995 -4.36928,0.9707 -6.58667,-4.6135 -14.64023,2.0347 -14.64023,12.0854 0,9.4481 6.45649,14.8556 14.09033,11.8012 4.15637,-1.6631 4.2425,-1.6544 6.07796,0.6123 4.40882,5.4447 -8.53333,9.9127 -18.06354,6.2361 z"
       id="path110" /><path
       style="fill:#103d8e;fill-opacity:1"
       d="m 425.552,1089.0992 c -4.88049,-2.2184 -5.72523,-4.6974 -6.28542,-18.4452 -0.50073,-12.2887 -0.54162,-12.4661 -3.00763,-13.0451 -1.9702,-0.4626 -2.5,-1.2132 -2.5,-3.5419 0,-2.3917 0.47651,-3.0218 2.5,-3.3057 3.04242,-0.4269 3.95992,-1.7227 4,-5.6492 0.0437,-4.2844 1.27674,-5.7104 4.60851,-5.3301 2.67902,0.3058 2.92823,0.6975 3.39149,5.3301 l 0.5,5 4,0.3168 c 4.90612,0.3886 5.93721,1.3051 5.12211,4.5527 -0.53286,2.1231 -1.29443,2.5639 -4.87679,2.8232 l -4.24532,0.3073 -0.28158,10.5275 c -0.31889,11.923 1.05655,14.9725 6.75315,14.9725 3.11258,0 5.14013,3.2883 3.21473,5.2137 -1.67538,1.6754 -9.44636,1.8402 -12.89325,0.2734 z"
       id="path109" /><path
       style="fill:#103d8e;fill-opacity:1"
       d="m 358.37857,1089.5107 c -7.47361,-2.2625 -9.16947,-4.3805 -6.32244,-7.8965 l 1.79718,-2.2194 3.45282,2.1049 c 4.31418,2.63 9.01753,2.6981 12.09204,0.175 3.38919,-2.7813 1.7912,-4.7827 -7.5275,-9.4281 -11.35772,-5.6619 -13.41241,-11.3492 -6.78134,-18.7707 6.2764,-7.0245 25.53618,-3.6508 20.76121,3.6368 -1.55693,2.3761 -1.773,2.4266 -4.0366,0.9435 -1.50003,-0.9829 -4.00647,-1.451 -6.72331,-1.2556 -4.07642,0.2931 -4.33168,0.4882 -4.33168,3.3096 0,3.1305 0.74299,3.6757 10.75684,7.8936 16.24737,6.8436 4.10255,26.7258 -13.13722,21.5069 z"
       id="path108" /><path
       id="path107"
       style="fill:#103d8e;fill-opacity:1"
       d="m 321.4043,1049.668 c -3.81681,-0.1248 -7.6489,1.0016 -10.80274,3.5508 -13.01985,10.5235 -10.17038,30.5301 5.15821,36.2226 15.28682,5.6771 29.16756,-13.4881 21.39648,-29.541 -3.07117,-6.3442 -9.39061,-10.0244 -15.75195,-10.2324 z m -0.66992,6.9433 c 10.60797,0 13.44112,20.3728 3.54492,25.4903 -1.60639,0.8307 -3.0559,1.4822 -3.22071,1.4472 -11.83869,-2.5042 -12.13271,-26.9375 -0.32421,-26.9375 z" /><path
       style="fill:#103d8e;fill-opacity:1"
       d="m 201.25895,1088.4131 c -4.80098,-3.2524 -6.08529,-8.7856 -5.75657,-24.801 l 0.25657,-12.5 4.25,-0.3075 4.25,-0.3075 0.0147,12.8075 c 0.0187,16.2477 1.92971,20.5422 8.41661,18.9141 6.61712,-1.6608 7.68704,-4.2803 7.49981,-18.3615 l -0.16947,-12.7451 4.14095,-0.3086 4.14096,-0.3085 -0.2718,19.3085 -0.2718,19.3086 -2.74951,0.3164 c -2.1846,0.2513 -2.9519,-0.216 -3.73454,-2.2744 l -0.98502,-2.5908 -3.94396,2.6099 c -5.70618,3.7762 -10.73328,4.1894 -15.08697,1.2399 z"
       id="path105" /><path
       style="fill:#103d8e;fill-opacity:1"
       d="m 164.9225,1089.389 c -8.7104,-2.3078 -15.28841,-14.2526 -12.8564,-23.3457 1.57542,-5.8903 5.37214,-11.5068 9.42677,-13.945 3.98337,-2.3955 15.49556,-2.7855 18.11239,-0.6138 4.02532,3.3408 0.61244,8.1816 -4.326,6.136 -7.04574,-2.9184 -14.02031,2.9745 -14.02031,11.846 0,10.3962 6.82596,16.2201 14.65605,12.5045 3.52851,-1.6744 3.60569,-1.6641 5.44567,0.7213 1.83078,2.3736 1.827,2.4527 -0.19767,4.1449 -4.03848,3.3752 -9.74704,4.2721 -16.2405,2.5518 z"
       id="path104" /><path
       style="fill:#103d8e;fill-opacity:1"
       d="m 891.92562,1104.9454 c -1.84243,-1.8424 -0.63806,-6.3333 1.69847,-6.3333 3.1284,0 7.1931,-3.294 8.42488,-6.8275 0.94536,-2.7119 -1.16013,-9.1085 -9.76693,-29.6725 -4.49563,-10.7413 -4.45549,-11.5 0.60839,-11.5 3.97816,0 4.0134,0.059 9.19115,15.3468 2.1996,6.4947 4.2344,12.0436 4.52179,12.331 1.15342,1.1534 2.65558,-0.9681 2.65558,-3.7504 0,-1.625 0.41197,-3.7359 0.91549,-4.691 0.50352,-0.955 1.8853,-5.1114 3.07062,-9.2364 1.18532,-4.125 2.33422,-8.0625 2.55312,-8.75 0.42355,-1.3303 8.4688,-1.8063 8.44995,-0.5 -0.0162,1.1236 -2.51069,8.7559 -5.80122,17.75 -1.60976,4.4 -4.38352,12.275 -6.16392,17.5 -3.69355,10.8396 -6.84173,15.6081 -11.62374,17.6061 -3.55399,1.485 -7.63601,1.8249 -8.73363,0.7272 z"
       id="path103" /><path
       style="fill:#103d8e;fill-opacity:1"
       d="m 450.31581,1104.7248 c -2.11018,-1.4176 0.19307,-6.1127 2.99862,-6.1127 3.17868,0 7.94452,-5.2901 7.94452,-8.8184 0,-1.6347 -1.27686,-6.0568 -2.83748,-9.8269 -5.05304,-12.207 -11.16252,-27.8733 -11.16252,-28.6236 0,-1.1776 7.8154,-0.8388 8.56327,0.3713 0.37471,0.6063 2.53877,6.5925 4.80901,13.3027 2.27025,6.7101 4.55902,12.4016 5.08616,12.6476 0.96325,0.4495 2.27259,-2.7106 4.57939,-11.0527 3.95649,-14.3078 4.91851,-16 9.09616,-16 2.12631,0 3.86601,0.2198 3.86601,0.4884 0,2.4113 -14.53593,43.0345 -16.75351,46.8207 -3.37039,5.7544 -12.21705,9.4721 -16.18963,6.8036 z"
       id="path1" /></g></svg>
